<?xml version="1.0" encoding="UTF-8"?>
<svg version="1.1" xmlns="http://www.w3.org/2000/svg" width="1254" height="1254">
<path d="M0 0 C413.82 0 827.64 0 1254 0 C1254 413.82 1254 827.64 1254 1254 C840.18 1254 426.36 1254 0 1254 C0 840.18 0 426.36 0 0 Z " fill="#03060D" transform="translate(0,0)"/>
<path d="M0 0 C83.49 0 166.98 0 253 0 C251.43663458 4.69009626 249.6922626 8.89624144 247.48413086 13.2746582 C247.13431656 13.97618515 246.78450226 14.6777121 246.42408752 15.40049744 C245.27489773 17.70256102 244.12000273 20.00170794 242.96484375 22.30078125 C242.16267701 23.90392195 241.36080654 25.50721092 240.55921936 27.11064148 C238.88301885 30.46148197 237.20414716 33.81096538 235.52319336 37.15942383 C233.36463353 41.45949389 231.21139781 45.76220255 229.05995846 50.06583881 C227.40678056 53.37192335 225.75152397 56.67696339 224.09555244 59.9816494 C223.30042962 61.56870609 222.50579588 63.15600792 221.71165276 64.74355507 C220.60527243 66.95415799 219.49627326 69.16342611 218.38647461 71.37231445 C218.05658539 72.03254608 217.72669617 72.69277771 217.3868103 73.37301636 C215.11448155 77.88551845 215.11448155 77.88551845 214 79 C212.2410657 79.09632045 210.47822841 79.1218751 208.71665955 79.12025452 C207.57095993 79.12162918 206.42526031 79.12300385 205.24484253 79.12442017 C203.97673737 79.12082489 202.7086322 79.11722961 201.40209961 79.11352539 C200.06206769 79.11324352 198.72203561 79.11340125 197.38200378 79.1139679 C193.73340562 79.11425587 190.08484005 79.1083592 186.43624949 79.10139394 C182.62722484 79.09516034 178.8181995 79.0945566 175.00917053 79.09336853 C167.79142246 79.09025523 160.57368946 79.08204186 153.35594803 79.07201904 C145.14084743 79.06085786 136.92574612 79.05534744 128.71063983 79.05032361 C111.80708449 79.03985925 94.90354384 79.02225983 78 79 C77.91763092 79.60342224 77.83526184 80.20684448 77.75039673 80.82855225 C77.37130948 83.58937189 76.98648389 86.34936297 76.6015625 89.109375 C76.47209229 90.0586084 76.34262207 91.0078418 76.20922852 91.98583984 C75.40514205 97.7165118 74.31590881 103.17376447 72.62109375 108.71484375 C71.79949973 111.73768968 71.50772478 114.71231182 71.30859375 117.83203125 C71 120 71 120 70.09765625 122.68359375 C68.7286625 126.81980618 67.86790091 130.98508068 67 135.25 C66.835 136.04535156 66.67 136.84070313 66.5 137.66015625 C65.65983075 141.72316222 64.84117295 145.79024405 64.03125 149.859375 C62.68511222 156.6084681 61.26590169 163.34223919 59.85546875 170.078125 C59.43595477 172.08561521 59.01794875 174.09342122 58.6015625 176.1015625 C58.20466524 178.01388568 57.80370907 179.92537153 57.3984375 181.8359375 C57.21539063 182.71507812 57.03234375 183.59421875 56.84375 184.5 C56.68068359 185.2734375 56.51761719 186.046875 56.34960938 186.84375 C55.89330159 189.29400477 55.89330159 189.29400477 56 193 C56.66249756 192.45025513 56.66249756 192.45025513 57.33837891 191.8894043 C65.6504551 184.99921546 73.97087922 178.13397377 82.53173828 171.5534668 C84.8215782 169.78045269 86.88294544 168.1445544 88.7118187 165.88602066 C91.84582022 163.3028374 94.58305464 163.45473799 98.46636963 163.51898193 C99.22116096 163.51556423 99.9759523 163.51214653 100.75361609 163.50862527 C103.28437185 163.50203331 105.81406843 163.52404319 108.34472656 163.54589844 C110.15810114 163.54702664 111.97147756 163.5463936 113.78485107 163.54412842 C118.71023659 163.54297926 123.63523364 163.56652125 128.56052876 163.59442425 C133.70681611 163.61940427 138.85311206 163.62177722 143.99945068 163.62652588 C153.7458777 163.63896565 163.49212557 163.67180085 173.23847365 163.71192384 C184.33385603 163.75661036 195.42924689 163.77862075 206.52469683 163.79870558 C229.34989726 163.84053256 252.1749386 163.91090412 275 164 C272.85590222 171.67763695 272.85590222 171.67763695 270.99291992 175.08837891 C270.60332596 175.81270111 270.21373199 176.53702332 269.81233215 177.28329468 C269.39344223 178.04832306 268.97455231 178.81335144 268.54296875 179.6015625 C267.63529305 181.29226812 266.72960292 182.98404091 265.82568359 184.67675781 C265.35853943 185.55110474 264.89139526 186.42545166 264.41009521 187.32629395 C262.09703312 191.71213121 259.88372057 196.14647552 257.67578125 200.5859375 C257.01411453 201.91434662 257.01411453 201.91434662 256.33908081 203.26959229 C254.99520204 205.97056138 253.6534839 208.6725926 252.3125 211.375 C250.51939693 214.98821361 248.72339705 218.59996727 246.92578125 222.2109375 C246.53393143 223.00293549 246.1420816 223.79493347 245.73835754 224.6109314 C243.35735823 229.3932199 240.87792585 234.11339652 238.33976746 238.81436157 C237.71321353 239.97553812 237.0866596 241.13671467 236.44111919 242.33307838 C235.96554986 243.21316252 235.48998053 244.09324665 235 245 C234.23376973 244.99501401 233.46753946 244.99002802 232.6780901 244.98489094 C213.98851116 244.86708148 195.29965168 244.81053351 176.60969257 244.82121754 C167.57104448 244.82492461 158.53330728 244.8082992 149.49487305 244.74291992 C141.61200976 244.685952 133.73016262 244.66803826 125.84712666 244.6959936 C121.67700814 244.70944519 117.5089307 244.70403995 113.33907509 244.65177345 C109.40394252 244.60306845 105.47219032 244.60707022 101.53701782 244.64941406 C100.10242346 244.65594173 98.66759341 244.64412821 97.23335838 244.61136436 C87.62264941 244.40599689 82.18956018 246.35078696 75.318703 252.76520807 C73.873299 254.17082868 72.43652395 255.58530534 71 257 C69.20460058 258.49987706 67.3949216 259.98308556 65.5625 261.4375 C62.51532462 263.91527618 59.49687998 266.41950968 56.51953125 268.98046875 C55.91995605 269.49601318 55.32038086 270.01155762 54.70263672 270.54272461 C53.48640536 271.59567618 52.27573878 272.65509074 51.07080078 273.72094727 C47.8282085 276.56326943 44.7005515 278.74615223 40.9375 280.875 C32.89862086 286.92657259 32.75956266 301.85076827 31.36328125 311.12890625 C31.06538336 313.26185514 30.78999865 315.39830498 30.5546875 317.5390625 C29.88277898 321.73139313 28.82383145 325.77412691 27.77148438 329.88525391 C26.62383945 334.5186887 25.71708618 339.18912375 24.8125 343.875 C22.65995128 354.8339681 20.37826422 365.76210143 18.0625 376.6875 C15.31214715 389.66890745 12.62659884 402.65963174 10.07836914 415.68237305 C8.21043184 425.16654857 6.09935721 434.55289253 4 444 C-27.35 444 -58.7 444 -91 444 C-89.81457478 436.29473608 -88.62826123 428.70403304 -87.046875 421.08984375 C-86.86634583 420.20817032 -86.68581665 419.32649689 -86.49981689 418.41810608 C-85.91981713 415.59055291 -85.3350752 412.76400691 -84.75 409.9375 C-84.3409953 407.94990076 -83.93214267 405.96227023 -83.5234375 403.97460938 C-81.39440112 393.63977986 -79.23106898 383.31331171 -77 373 C-74.46635457 361.28611857 -72.03013104 349.55337356 -69.625 337.8125 C-69.43311096 336.87579468 -69.24122192 335.93908936 -69.04351807 334.97399902 C-66.23632142 321.24855293 -63.53010056 307.50557513 -60.875 293.75 C-58.33044639 280.56951359 -55.62544353 267.4448856 -52.70556641 254.34204102 C-50.25501617 243.3167173 -47.99141752 232.25702858 -45.75 221.1875 C-41.95539077 202.45572002 -37.96955265 183.76893778 -33.89355469 165.09643555 C-30.77051747 150.76101978 -27.841473 136.39368862 -25 122 C-24.32524374 118.5974524 -23.6489966 115.19520178 -22.97265625 111.79296875 C-22.7365992 110.60473007 -22.7365992 110.60473007 -22.49577332 109.39248657 C-19.55882068 94.61365998 -16.57775008 79.85097752 -13.3684082 65.12841797 C-10.43727301 51.57500702 -7.76759933 37.96799215 -5.07055664 24.36645508 C-4.88237869 23.41891357 -4.69420074 22.47137207 -4.50032043 21.49511719 C-4.14775786 19.71886482 -3.79611389 17.94242974 -3.44560242 16.16577148 C-3.2846962 15.35479004 -3.12378998 14.54380859 -2.95800781 13.70825195 C-2.75198944 12.66578056 -2.75198944 12.66578056 -2.54180908 11.60224915 C-1.7347916 7.72623338 -0.85885767 3.86485949 0 0 Z " fill="#FCFCFC" transform="translate(686,405)"/>
<path d="M0 0 C33.66 0 67.32 0 102 0 C96.18435482 30.24135495 96.18435482 30.24135495 93.10717773 45.22216797 C92.56345757 47.87033618 92.02278067 50.51911284 91.48242188 53.16796875 C89.42952429 63.20371486 87.31413133 73.22459369 85.15625 83.23828125 C82.89312137 93.74841558 80.68964779 104.26955027 78.52734375 114.80078125 C78.38050707 115.51580811 78.23367039 116.23083496 78.08238411 116.9675293 C76.88070195 122.82146125 75.68189511 128.67598131 74.48345947 134.53057861 C73.43709956 139.64179031 72.38945677 144.75273655 71.33984375 149.86328125 C71.1949394 150.56903101 71.05003506 151.27478077 70.90073967 152.00191689 C68.90109031 161.73189632 66.83473572 171.44542177 64.70346069 181.14749146 C62.87782919 189.48567494 61.19663762 197.84953768 59.54788208 206.22424316 C56.93225748 219.49822965 54.23859686 232.74981135 51.36181641 245.9699707 C49.16575062 256.10967568 47.09854402 266.27419591 45.03347778 276.44125366 C42.00833022 291.33277452 38.96935891 306.20772505 35.46582031 320.99560547 C35.02573294 322.88927285 34.6173281 324.79022248 34.2109375 326.69140625 C29.74326001 347.48328997 21.1686523 364.21946954 6 379 C5.26136719 379.74765625 4.52273438 380.4953125 3.76171875 381.265625 C-12.16528295 396.50275657 -36.11900077 405.38367961 -58.04176331 405.24050903 C-59.01317149 405.24221788 -59.98457967 405.24392673 -60.98542446 405.24568737 C-64.21895661 405.24896428 -67.45227819 405.23800826 -70.68579102 405.22705078 C-73.01221207 405.22648628 -75.33863348 405.22680399 -77.66505432 405.22793579 C-83.96600467 405.22850878 -90.26687863 405.2167631 -96.56781125 405.20278788 C-102.49001604 405.19154051 -108.41221797 405.18954002 -114.334432 405.18748413 C-126.05931343 405.18311414 -137.78416693 405.16982396 -149.5090332 405.15087891 C-160.89412293 405.13250207 -172.27920506 405.1183544 -183.66430664 405.10986328 C-184.36687309 405.10933783 -185.06943953 405.10881239 -185.79329587 405.10827102 C-189.31810093 405.10566082 -192.84290604 405.10313343 -196.36771119 405.10064721 C-225.57849229 405.07993638 -254.78924577 405.04458048 -284 405 C-283.53894641 403.58893946 -283.07541635 402.17868798 -282.61088562 400.76876831 C-282.35303126 399.98334593 -282.09517691 399.19792355 -281.82950878 398.38870049 C-280.51015351 394.5894103 -278.8990394 390.93234856 -277.26953125 387.2578125 C-276.91541672 386.44996307 -276.56130219 385.64211365 -276.19645691 384.80978394 C-275.07218591 382.24653797 -273.94266942 379.68565001 -272.8125 377.125 C-271.3378256 373.77432191 -269.86567253 370.42254315 -268.39453125 367.0703125 C-268.03263702 366.24718567 -267.6707428 365.42405884 -267.29788208 364.57598877 C-264.27969738 357.69065252 -261.35714525 350.76695491 -258.48408508 343.81985474 C-256.1058521 338.1058521 -256.1058521 338.1058521 -255 337 C-252.94094424 336.90187769 -250.87847003 336.87535448 -248.81707764 336.87542725 C-248.16386009 336.8740171 -247.51064253 336.87260695 -246.83763051 336.87115407 C-244.63229238 336.86748244 -242.4270178 336.8708457 -240.22167969 336.87402344 C-238.64658559 336.87262944 -237.07149186 336.87073063 -235.49639893 336.86836243 C-232.0942225 336.86385472 -228.69205818 336.8620091 -225.28987885 336.86190033 C-219.90100543 336.86076134 -214.51220077 336.84793009 -209.12335205 336.83233643 C-208.2140364 336.82976357 -207.30472074 336.82719072 -206.36785007 336.8245399 C-204.50761663 336.81927266 -202.64738324 336.81398718 -200.78714991 336.80868387 C-188.23797266 336.77359401 -175.68887879 336.74701327 -163.13964844 336.74951172 C-154.68160277 336.75110515 -146.22378996 336.7349455 -137.76581883 336.69880509 C-133.29231458 336.68041083 -128.81919866 336.67094394 -124.34566498 336.68328094 C-120.12656247 336.69480146 -115.90815146 336.68282038 -111.68914032 336.65364647 C-110.14978277 336.64705856 -108.61036084 336.64878121 -107.07102966 336.65994453 C-94.2365543 336.74521134 -82.41492987 334.66873597 -72.9296875 325.33984375 C-62.25892482 312.40100399 -60.74591641 293.94668359 -57.74026489 278.02438354 C-56.04241353 269.03616085 -54.15192095 260.12767213 -51.9375 251.25 C-49.28286175 240.56640751 -47.22270004 229.83172381 -45.2734375 219 C-41.85105958 200.01407821 -37.86220745 181.1424079 -33.68945312 162.30932617 C-31.0665283 150.44585267 -28.61967595 138.54837469 -26.22094727 126.63769531 C-25.94157364 125.26106677 -25.66219562 123.88443912 -25.3828125 122.5078125 C-25.01760498 120.69240967 -25.01760498 120.69240967 -24.64501953 118.84033203 C-24 116 -24 116 -23 114 C-22.67988858 112.21319627 -22.393584 110.42027199 -22.125 108.625 C-21.29636785 103.44295717 -20.16662966 98.43464746 -18.78125 93.375 C-18.11220831 90.4847399 -17.59611322 87.64150933 -17.125 84.71484375 C-15.93350951 77.38355291 -14.465586 70.11674558 -12.96826172 62.84301758 C-12.49595951 60.54282212 -12.03109477 58.24119727 -11.56640625 55.93945312 C-11.26347125 54.46084515 -10.9601017 52.98232612 -10.65625 51.50390625 C-10.45147034 50.48352013 -10.45147034 50.48352013 -10.24255371 49.44252014 C-9.47900044 45.77398064 -8.43323809 42.45467497 -7 39 C-6.67168983 36.71585919 -6.40845992 34.42201187 -6.1875 32.125 C-4.78020327 21.31103565 -2.31657726 10.65625539 0 0 Z " fill="#FCFCFC" transform="translate(531,405)"/>
<path d="M0 0 C34.32 0 68.64 0 104 0 C101.39944027 6.50139934 98.76948935 12.83023398 95.75 19.125 C95.35578857 19.95209473 94.96157715 20.77918945 94.55541992 21.63134766 C91.8955333 27.19045192 89.16400138 32.71002175 86.38525391 38.21044922 C82.06264285 46.80282768 77.919295 55.48372347 73.74731445 64.14990234 C73.30019356 65.07852585 73.30019356 65.07852585 72.84403992 66.02590942 C72.02397958 67.72961431 71.20459595 69.43364487 70.38525391 71.13769531 C69.27412749 73.43357937 68.14067397 75.71865206 67 78 C32.68 78 -1.64 78 -37 78 C-35.00447178 72.01341534 -33.07504137 66.73409425 -30.234375 61.2109375 C-29.87788879 60.5045816 -29.52140259 59.79822571 -29.15411377 59.07046509 C-28.0251571 56.83567526 -26.88812088 54.60513452 -25.75 52.375 C-24.26237751 49.44695034 -22.77850531 46.51702348 -21.296875 43.5859375 C-20.7507103 42.50717346 -20.7507103 42.50717346 -20.19351196 41.40661621 C-17.48235542 36.02546296 -14.91512706 30.58727444 -12.39273071 25.1156311 C-10.13325291 20.23270225 -7.69943841 15.4728254 -5.125 10.75 C-2.24247032 5.5214032 -2.24247032 5.5214032 0 0 Z " fill="#0062FC" transform="translate(963,405)"/>
<path d="M0 0 C35.64 0 71.28 0 108 0 C107.02439643 5.85362145 106.21986255 7.40019636 103 12 C101.68 14.64 100.36 17.28 99 20 C63.36 20 27.72 20 -9 20 C-6.18824203 13.25178086 -3.26938662 6.53877325 0 0 Z " fill="#0161FA" transform="translate(238,829)"/>
<path d="M0 0 C2.21388435 -0.36914349 2.21388435 -0.36914349 5.0239563 -0.36076355 C6.08688904 -0.36488754 7.14982178 -0.36901154 8.2449646 -0.3732605 C10.00146835 -0.35708176 10.00146835 -0.35708176 11.79345703 -0.34057617 C13.63731995 -0.34123329 13.63731995 -0.34123329 15.51843262 -0.34190369 C18.89445404 -0.34016852 22.26992889 -0.32509675 25.64585352 -0.30418181 C29.17191625 -0.28546082 32.69798582 -0.2836682 36.22409058 -0.28010559 C42.90354593 -0.27077161 49.58285444 -0.24613967 56.26224506 -0.21605712 C63.86551178 -0.18255507 71.46878542 -0.16603769 79.07210755 -0.15097082 C94.71482349 -0.11959118 110.35739283 -0.06680456 126 0 C126 0.33 126 0.66 126 1 C128.31 1.33 130.62 1.66 133 2 C133 2.33 133 2.66 133 3 C88.45 3 43.9 3 -2 3 C-1.34 2.01 -0.68 1.02 0 0 Z " fill="#E3E4E6" transform="translate(767,481)"/>
<path d="M0 0 C0 4.26835848 -1.78208149 6.37067881 -4 10 C-5.71625339 11.71625339 -7.97710328 11.14323262 -10.32130432 11.15821838 C-12.05247498 11.17290161 -12.05247498 11.17290161 -13.81861877 11.18788147 C-15.73480263 11.19651466 -15.73480263 11.19651466 -17.68969727 11.20532227 C-19.03958439 11.21489564 -20.38946848 11.22490539 -21.73934937 11.23532104 C-25.41477343 11.26243483 -29.09021042 11.28340921 -32.7656796 11.30332303 C-36.60275729 11.3251428 -40.43979485 11.35255104 -44.27684021 11.37937927 C-51.54768307 11.42936054 -58.81854814 11.47427913 -66.08943456 11.51740164 C-74.36502202 11.56672767 -82.64056923 11.62166293 -90.91611779 11.67708123 C-107.94404134 11.79098466 -124.97200223 11.8978054 -142 12 C-142 11.34 -142 10.68 -142 10 C-97.12 9.67 -52.24 9.34 -6 9 C-4.68 6.36 -3.36 3.72 -2 1 C-1.34 0.67 -0.68 0.34 0 0 Z " fill="#28292B" transform="translate(906,474)"/>
<path d="M0 0 C33.99 0 67.98 0 103 0 C102.01 1.65 101.02 3.3 100 5 C99.01 5 98.02 5 97 5 C97 4.01 97 3.02 97 2 C64.99 2 32.98 2 0 2 C0 1.34 0 0.68 0 0 Z " fill="#0173FD" transform="translate(964,405)"/>
<path d="M0 0 C0.66 0 1.32 0 2 0 C1.44755965 3.86708247 -0.21137061 5.36629446 -3 8 C-4.7070646 9.96894382 -6.34955379 11.98278797 -8 14 C-9.32 13.67 -10.64 13.34 -12 13 C-11.30132813 12.31292969 -10.60265625 11.62585938 -9.8828125 10.91796875 C-8.97273437 10.01691406 -8.06265625 9.11585938 -7.125 8.1875 C-6.22007812 7.29417969 -5.31515625 6.40085937 -4.3828125 5.48046875 C-1.90168486 3.04361667 -1.90168486 3.04361667 0 0 Z " fill="#1F2123" transform="translate(546,773)"/>
<path d="M0 0 C0.12375 0.639375 0.2475 1.27875 0.375 1.9375 C0.684375 2.9584375 0.684375 2.9584375 1 4 C1.66 4.33 2.32 4.66 3 5 C2.01 5.495 2.01 5.495 1 6 C1 9.3 1 12.6 1 16 C0.34 16.33 -0.32 16.66 -1 17 C-1.35412344 18.32796291 -1.68521554 19.66216607 -2 21 C-2.66 21.99 -3.32 22.98 -4 24 C-3.52087184 15.75569133 -2.02214499 7.99955473 0 0 Z " fill="#393A3E" transform="translate(711,743)"/>
<path d="M0 0 C0.85946409 2.42963887 1.09627683 3.6871003 0.328125 6.18359375 C-3.92653456 15.0782987 -3.92653456 15.0782987 -6 18 C-6.66 18 -7.32 18 -8 18 C-6.65150163 13.64029169 -4.95092154 9.68658562 -2.875 5.625 C-2.33617187 4.56539063 -1.79734375 3.50578125 -1.2421875 2.4140625 C-0.83226562 1.61742187 -0.42234375 0.82078125 0 0 Z " fill="#025CDA" transform="translate(942,448)"/>
<path d="M0 0 C0.99 0.33 1.98 0.66 3 1 C0.69 5.29 -1.62 9.58 -4 14 C-4.66 14 -5.32 14 -6 14 C-4.50829734 9.0276578 -2.39542583 4.58154261 0 0 Z " fill="#28292C" transform="translate(921,441)"/>
<path d="M0 0 C2.06913193 2.23466248 3.017098 3.33317783 2.9375 6.4375 C1.81075754 9.51726273 0.16291432 11.55799996 -2 14 C-1.03644647 4.58997722 -1.03644647 4.58997722 0 0 Z " fill="#D4D5D7" transform="translate(502,545)"/>
<path d="M0 0 C1.32 0 2.64 0 4 0 C3.38461538 5.53846154 3.38461538 5.53846154 1.4375 7.875 C0.963125 8.24625 0.48875 8.6175 0 9 C-0.87890625 2.84765625 -0.87890625 2.84765625 -1 1 C-0.67 0.67 -0.34 0.34 0 0 Z " fill="#0255E2" transform="translate(342,829)"/>
<path d="M0 0 C1.485 0.99 1.485 0.99 3 2 C2.34 5.96 1.68 9.92 1 14 C-1.04379831 9.91240337 -1.18594005 9.01314435 -0.625 4.75 C-0.51414062 3.85796875 -0.40328125 2.9659375 -0.2890625 2.046875 C-0.19367187 1.37140625 -0.09828125 0.6959375 0 0 Z " fill="#292B30" transform="translate(753,536)"/>
<path d="M0 0 C0.66 0 1.32 0 2 0 C1.34 3.96 0.68 7.92 0 12 C-0.66 11.67 -1.32 11.34 -2 11 C-2.28571429 3.57142857 -2.28571429 3.57142857 0 0 Z " fill="#121418" transform="translate(684,408)"/>
<path d="M0 0 C0.66 0 1.32 0 2 0 C1.34 3.96 0.68 7.92 0 12 C-2 9 -2 9 -1.6875 5.4375 C-1 2 -1 2 0 0 Z " fill="#111214" transform="translate(488,605)"/>
<path d="M0 0 C0.99 0.33 1.98 0.66 3 1 C2.25 3.9375 2.25 3.9375 1 7 C-1.125 7.875 -1.125 7.875 -3 8 C-1.125 2.25 -1.125 2.25 0 0 Z " fill="#222429" transform="translate(948,595)"/>
<path d="M0 0 C0.33 0.66 0.66 1.32 1 2 C-0.25 5.5625 -0.25 5.5625 -2 9 C-2.99 9.33 -3.98 9.66 -5 10 C-3.84414715 6.08788267 -2.64465038 3.1254959 0 0 Z " fill="#005FE1" transform="translate(948,438)"/>
<path d="M0 0 C0.185625 0.9590625 0.185625 0.9590625 0.375 1.9375 C0.684375 2.9584375 0.684375 2.9584375 1 4 C1.66 4.33 2.32 4.66 3 5 C1.02 9.455 1.02 9.455 -1 14 C-1.98612849 10.05548603 -1.91655666 8.56813566 -1.0625 4.75 C-0.86785156 3.85796875 -0.67320312 2.9659375 -0.47265625 2.046875 C-0.31667969 1.37140625 -0.16070312 0.6959375 0 0 Z " fill="#CDCDCF" transform="translate(507,521)"/>
<path d="M0 0 C0.33 0 0.66 0 1 0 C0.4140625 6.15234375 0.4140625 6.15234375 0 8 C-0.99 8.495 -0.99 8.495 -2 9 C-2.66 9.99 -3.32 10.98 -4 12 C-3.51421457 8.87709365 -3.0013988 6.00419641 -2 3 C-1.34 3 -0.68 3 0 3 C0 2.01 0 1.02 0 0 Z " fill="#E4E4E5" transform="translate(526,441)"/>
<path d="M0 0 C-0.33 2.64 -0.66 5.28 -1 8 C-1.99 8.33 -2.98 8.66 -4 9 C-3.4140625 2.84765625 -3.4140625 2.84765625 -3 1 C-1 0 -1 0 0 0 Z " fill="#13161A" transform="translate(581,666)"/>
<path d="M0 0 C0.99 0 1.98 0 3 0 C2.67 2.64 2.34 5.28 2 8 C1.01 7.67 0.02 7.34 -1 7 C-0.67 4.69 -0.34 2.38 0 0 Z " fill="#16161A" transform="translate(482,629)"/>
<path d="M0 0 C0.33 0.66 0.66 1.32 1 2 C0.22265625 3.7265625 0.22265625 3.7265625 -0.9375 5.625 C-1.618125 6.73875 -2.29875 7.8525 -3 9 C-3.66 9 -4.32 9 -5 9 C-3.90931332 5.22454612 -3.0916909 2.52956528 0 0 Z " fill="#025DD9" transform="translate(932,471)"/>
<path d="M0 0 C1.125 1.75 1.125 1.75 2 4 C1.125 6.25 1.125 6.25 0 8 C-0.99 8 -1.98 8 -3 8 C-1.125 2.25 -1.125 2.25 0 0 Z " fill="#202226" transform="translate(938,407)"/>
<path d="M0 0 C0.33 0.99 0.66 1.98 1 3 C-1.85306797 5.32472205 -4.54074837 6.7508258 -8 8 C-5.33333333 5.33333333 -2.66666667 2.66666667 0 0 Z " fill="#1B1B20" transform="translate(747,669)"/>
<path d="M0 0 C0 4.24645065 -1.81750806 6.38524772 -4 10 C-5 7 -5 7 -3.6875 3.875 C-2 1 -2 1 0 0 Z " fill="#222224" transform="translate(906,474)"/>
<path d="M0 0 C0.99 0 1.98 0 3 0 C2.43628586 3.26954202 1.50037734 4.82575883 -1 7 C-1.33 6.34 -1.66 5.68 -2 5 C-1.0625 2.375 -1.0625 2.375 0 0 Z " fill="#1E2025" transform="translate(559,750)"/>
<path d="M0 0 C0.66 0.33 1.32 0.66 2 1 C1.42415568 3.38564077 0.77772405 5.66682784 0 8 C-0.66 8 -1.32 8 -2 8 C-1.34 5.36 -0.68 2.72 0 0 Z " fill="#17191D" transform="translate(563,739)"/>
<path d="M0 0 C-2.3773161 2.3773161 -3.70285207 2.67028521 -7 3 C-7.66 2.34 -8.32 1.68 -9 1 C-5.57367167 -0.61798838 -3.61944899 -1.34053666 0 0 Z " fill="#22252A" transform="translate(514,802)"/>
<path d="M0 0 C0.66 0.33 1.32 0.66 2 1 C0.375 6.75 0.375 6.75 -3 9 C-2.01 6.03 -1.02 3.06 0 0 Z " fill="#D7D6D9" transform="translate(260,778)"/>
<path d="M0 0 C2 2 2 2 2.125 4.625 C2.08375 5.40875 2.0425 6.1925 2 7 C1.01 7 0.02 7 -1 7 C-0.67 4.69 -0.34 2.38 0 0 Z " fill="#0F1116" transform="translate(592,600)"/>
<path d="M0 0 C0.33 0.66 0.66 1.32 1 2 C1.99 2 2.98 2 4 2 C4 2.66 4 3.32 4 4 C1.5 5.625 1.5 5.625 -1 7 C-0.67 4.69 -0.34 2.38 0 0 Z " fill="#2D2E30" transform="translate(742,592)"/>
</svg>
